<svg xmlns="http://www.w3.org/2000/svg" width="1878" height="1007.861" viewBox="0 0 1878 1007.861"><g transform="translate(-34 -72.646)"><rect width="22" height="43.114" transform="translate(34 976.886)" fill="#d9d9d9"/><line y2="86" transform="translate(45.5 994.5)" fill="none" stroke="#d9d9d9" stroke-width="1"/><rect width="22" height="50.114" transform="translate(98 929.886)" fill="#d9d9d9"/><line y2="108" transform="translate(109.5 972.5)" fill="none" stroke="#d9d9d9" stroke-width="1"/><rect width="22" height="25.114" transform="translate(162 968.886)" fill="#d9d9d9"/><line y2="92" transform="translate(173.5 988.5)" fill="none" stroke="#d9d9d9" stroke-width="1"/><rect width="22" height="57.114" transform="translate(226 892.886)" fill="#d9d9d9"/><line y2="139" transform="translate(237.5 941.5)" fill="none" stroke="#d9d9d9" stroke-width="1"/><rect width="22" height="73.114" transform="translate(290 906.886)" fill="#d9d9d9"/><line y2="104" transform="translate(301.5 976.5)" fill="none" stroke="#d9d9d9" stroke-width="1"/><rect width="22" height="27.114" transform="translate(354 941.886)" fill="#d9d9d9"/><line y2="119" transform="translate(365.5 961.5)" fill="none" stroke="#d9d9d9" stroke-width="1"/><rect width="22" height="67.114" transform="translate(418 887.886)" fill="#d9d9d9"/><line y2="125" transform="translate(429.5 955.5)" fill="none" stroke="#d9d9d9" stroke-width="1"/><rect width="22" height="84.114" transform="translate(482 813.886)" fill="#d9d9d9"/><line y2="193" transform="translate(493.5 887.5)" fill="none" stroke="#d9d9d9" stroke-width="1"/><rect width="22" height="61.114" transform="translate(546 778.886)" fill="#d9d9d9"/><line y2="250" transform="translate(557.5 830.5)" fill="none" stroke="#d9d9d9" stroke-width="1"/><rect width="22" height="33.114" transform="translate(610 830.886)" fill="#d9d9d9"/><line y2="225" transform="translate(621.5 855.5)" fill="none" stroke="#d9d9d9" stroke-width="1"/><rect width="22" height="73.114" transform="translate(674 847.886)" fill="#d9d9d9"/><line y2="174" transform="translate(685.5 906.5)" fill="none" stroke="#d9d9d9" stroke-width="1"/><rect width="22" height="115.114" transform="translate(738 748.886)" fill="#d9d9d9"/><line y2="229" transform="translate(749.5 851.5)" fill="none" stroke="#d9d9d9" stroke-width="1"/><rect width="22" height="55.114" transform="translate(802 677.886)" fill="#d9d9d9"/><line y2="358" transform="translate(813.5 722.5)" fill="none" stroke="#d9d9d9" stroke-width="1"/><rect width="22" height="65.114" transform="translate(866 722.886)" fill="#d9d9d9"/><line y2="313" transform="translate(877.5 767.5)" fill="none" stroke="#d9d9d9" stroke-width="1"/><rect width="22" height="44.114" transform="translate(930 688.886)" fill="#d9d9d9"/><line y2="370" transform="translate(941.5 710.5)" fill="none" stroke="#d9d9d9" stroke-width="1"/><rect width="22" height="56.114" transform="translate(994 636.886)" fill="#d9d9d9"/><line y2="416" transform="translate(1005.5 664.5)" fill="none" stroke="#d9d9d9" stroke-width="1"/><rect width="22" height="46" transform="translate(1058 576)" fill="#d9d9d9"/><line y2="499" transform="translate(1069.5 581.5)" fill="none" stroke="#d9d9d9" stroke-width="1"/><rect width="22" height="34" transform="translate(1122 559)" fill="#d9d9d9"/><line y2="499" transform="translate(1133.5 581.5)" fill="none" stroke="#d9d9d9" stroke-width="1"/><rect width="22" height="70" transform="translate(1186 529)" fill="#d9d9d9"/><line y2="499" transform="translate(1197.5 581.5)" fill="none" stroke="#d9d9d9" stroke-width="1"/><rect width="22" height="90" transform="translate(1250 338.116)" fill="#d9d9d9"/><line y2="681" transform="translate(1261.5 399.5)" fill="none" stroke="#d9d9d9" stroke-width="1"/><rect width="22" height="60" transform="translate(1324 264.696)" fill="#d9d9d9"/><line x1="11" y2="796" transform="translate(1325.5 284.5)" fill="none" stroke="#d9d9d9" stroke-width="1"/><rect width="22" height="62" transform="translate(1378 347.773)" fill="#d9d9d9"/><line y2="691" transform="translate(1389.5 389.5)" fill="none" stroke="#d9d9d9" stroke-width="1"/><rect width="22" height="37" transform="translate(1442 439.715)" fill="#d9d9d9"/><line y2="617" transform="translate(1453.5 463.5)" fill="none" stroke="#d9d9d9" stroke-width="1"/><rect width="22" height="29" transform="translate(1506 466.944)" fill="#d9d9d9"/><line y2="599" transform="translate(1517.5 481.5)" fill="none" stroke="#d9d9d9" stroke-width="1"/><rect width="22" height="31" transform="translate(1570 447.773)" fill="#d9d9d9"/><line y2="614" transform="translate(1581.5 466.5)" fill="none" stroke="#d9d9d9" stroke-width="1"/><rect width="22" height="37" transform="translate(1634 399.826)" fill="#d9d9d9"/><line y2="662" transform="translate(1645.5 418.5)" fill="none" stroke="#d9d9d9" stroke-width="1"/><rect width="22" height="56" transform="translate(1698 280.907)" fill="#d9d9d9"/><line y2="765" transform="translate(1709.5 315.5)" fill="none" stroke="#d9d9d9" stroke-width="1"/><rect width="22" height="39" transform="translate(1762 177.646)" fill="#d9d9d9"/><line y2="878" transform="translate(1773.5 202.5)" fill="none" stroke="#d9d9d9" stroke-width="1"/><rect width="22" height="22" transform="translate(1826 143.646)" fill="#d9d9d9"/><line y2="925.354" transform="translate(1837.5 155.146)" fill="none" stroke="#d9d9d9" stroke-width="1"/><rect width="22" height="86" transform="translate(1890 72.646)" fill="#d9d9d9"/><line y2="945" transform="translate(1901.5 135.5)" fill="none" stroke="#d9d9d9" stroke-width="1"/></g></svg>