<svg xmlns="http://www.w3.org/2000/svg" viewBox="0 0 211.404 113.791"><g transform="translate(1.5 59.082)"><circle cx="26.604" cy="26.604" r="26.604" fill="#1c75bc" stroke="#484848" stroke-width="3"/><path d="M40.622,15.08,37.233,25.69s-2.09,5.289-7.063,5.289H6.195l1.71-5.289H29.632l3.42-10.61h-21.7L13.036,9.79H36.885C42.111,9.79,40.622,15.08,40.622,15.08ZM7.05,17.93H19.909l-1.647,4.909H5.371Z" transform="translate(3.56 6.489)" fill="#fff" fill-rule="evenodd"/><path d="M10,56.352c6.124-3.469,6.9-17.751,6.982-19.813H6.5a6.5,6.5,0,0,1-6.5-6.5V6.5A6.5,6.5,0,0,1,6.5,0h161A6.5,6.5,0,0,1,174,6.5V30.038a6.5,6.5,0,0,1-6.5,6.5H36.318C31.026,50.9,12.775,57.429,9.468,57.429,8.687,57.428,8.739,57.064,10,56.352Z" transform="translate(34.404 -57.582)" fill="#fff" stroke="#484848" stroke-width="3"/><text transform="translate(54.904 -33.082)" fill="#484848" font-size="17" font-family="Monaco"><tspan x="0" y="0">it’s mooning!</tspan></text></g></svg>