<svg xmlns="http://www.w3.org/2000/svg" viewBox="0 0 229.9 109.791"><g transform="translate(1.5 55.536)"><ellipse cx="26.377" cy="26.377" rx="26.377" ry="26.377" fill="#627eea" stroke="#484848" stroke-width="3"/><g transform="translate(14.837 6.594)"><path d="M7.5,0V14.623l12.359,5.523Z" transform="translate(4.863)" fill="#c5c6dd"/><path d="M12.361,0,0,20.145l12.361-5.523Z" fill="#fff"/><path d="M7.5,20.791v9.936l12.368-17.11Z" transform="translate(4.863 8.831)" fill="#c5c6dd"/><path d="M12.361,30.726V20.789L0,13.616Z" transform="translate(0 8.831)" fill="#fff"/><path d="M7.5,21.568l12.359-7.176L7.5,8.872Z" transform="translate(4.863 5.754)" fill="#939dc3"/><path d="M0,14.391l12.361,7.176V8.872Z" transform="translate(0 5.754)" fill="#ccd1d9"/></g><path d="M10,56.352c6.124-3.469,6.9-17.751,6.982-19.813H6.5a6.5,6.5,0,0,1-6.5-6.5V6.5A6.5,6.5,0,0,1,6.5,0h161A6.5,6.5,0,0,1,174,6.5V30.038a6.5,6.5,0,0,1-6.5,6.5H36.318C31.026,50.9,12.775,57.429,9.468,57.429,8.687,57.428,8.739,57.064,10,56.352Z" transform="translate(52.9 -54.036)" fill="#fff" stroke="#484848" stroke-width="3"/><text transform="translate(68.4 -28.537)" fill="#484848" font-size="17" font-family="Monaco"><tspan x="0" y="0">Should I sell?</tspan></text></g></svg>