<svg xmlns="http://www.w3.org/2000/svg" width="665" height="410.5" viewBox="0 0 665 410.5"><g transform="translate(-865.5 -374.5)"><rect width="662" height="357" rx="10" transform="translate(867 376)" fill="#fff" stroke="#484848" stroke-width="3"/><rect width="217" height="52" transform="translate(1090 733)" fill="#484848"/><rect width="331" height="8" transform="translate(1033 777)" fill="#484848"/><rect width="45" height="327" transform="translate(880 391)" fill="#484848"/><rect width="274" height="327" transform="translate(1242 391)" fill="#efefef"/><rect width="263" height="24" rx="12" transform="translate(935 686)" fill="#efefef"/><rect width="181" height="10" rx="5" transform="translate(935 412)" fill="#efefef"/><rect width="73" height="10" rx="5" transform="translate(935 442)" fill="#efefef"/><rect width="113" height="10" rx="5" transform="translate(935 472)" fill="#efefef"/><rect width="70" height="10" rx="5" transform="translate(935 502)" fill="#efefef"/><rect width="157" height="10" rx="5" transform="translate(935 532)" fill="#efefef"/><rect width="125" height="10" rx="5" transform="translate(935 562)" fill="#efefef"/><rect width="215" height="10" rx="5" transform="translate(935 592)" fill="#efefef"/><rect width="65" height="10" rx="5" transform="translate(935 622)" fill="#efefef"/><rect width="30" height="10" rx="5" transform="translate(1278.5 547.5) rotate(90)" fill="#4af7b5"/><rect width="22" height="10" rx="5" transform="translate(1299.5 536.5) rotate(90)" fill="#4af7b5"/><rect width="26" height="10" rx="5" transform="translate(1320.5 516.5) rotate(90)" fill="#4af7b5"/><rect width="21" height="10" rx="5" transform="translate(1341.5 529.5) rotate(90)" fill="#f86464"/><rect width="17" height="10" rx="5" transform="translate(1362.5 545.5) rotate(90)" fill="#f86464"/><rect width="33" height="10" rx="5" transform="translate(1383.5 525.5) rotate(90)" fill="#4af7b5"/><rect width="25" height="10" rx="5" transform="translate(1404.5 507.5) rotate(90)" fill="#4af7b5"/><rect width="28" height="10" rx="5" transform="translate(1425.5 485.5) rotate(90)" fill="#4af7b5"/><rect width="16" height="10" rx="5" transform="translate(1446.5 475.5) rotate(90)" fill="#4af7b5"/><rect width="18" height="10" rx="5" transform="translate(1467.5 485.5) rotate(90)" fill="#f86464"/><rect width="31" height="10" rx="5" transform="translate(1488.5 494.5) rotate(90)" fill="#f86464"/><rect width="95" height="10" rx="5" transform="translate(935 652)" fill="#efefef"/><rect width="24" height="24" rx="12" transform="translate(1208 686)" fill="#efefef"/></g></svg>